<?xml version="1.0" encoding="utf-8"?>
<!-- Generator: Adobe Illustrator 26.0.1, SVG Export Plug-In . SVG Version: 6.00 Build 0)  -->
<svg version="1.1" id="Layer_1" xmlns="http://www.w3.org/2000/svg" xmlns:xlink="http://www.w3.org/1999/xlink" x="0px" y="0px"
	 viewBox="0 0 740 137" style="enable-background:new 0 0 740 137;" xml:space="preserve">
<style type="text/css">
	.st0{fill:#FFFFFF;}
</style>
<g>
	<g>
		<path class="st0" d="M730.81,16.89c0,6.7-5.39,12.02-12.24,12.02c-6.85,0-12.32-5.32-12.32-12.02s5.46-11.95,12.39-11.95
			C725.42,4.94,730.81,10.19,730.81,16.89z M709.31,16.89c0,5.32,4.01,9.55,9.33,9.55c5.17,0.07,9.11-4.23,9.11-9.47
			c0-5.32-3.94-9.62-9.25-9.62C713.32,7.34,709.31,11.64,709.31,16.89z M716.67,23.08h-2.77V11.13c1.09-0.15,2.62-0.36,4.59-0.36
			c2.26,0,3.28,0.36,4.08,0.95c0.73,0.51,1.24,1.38,1.24,2.55c0,1.46-1.09,2.41-2.48,2.84v0.15c1.17,0.36,1.75,1.31,2.11,2.92
			c0.36,1.82,0.66,2.48,0.88,2.92h-2.91c-0.37-0.44-0.58-1.46-0.95-2.92c-0.22-1.24-0.95-1.82-2.48-1.82h-1.31V23.08z M716.75,16.38
			h1.31c1.53,0,2.77-0.51,2.77-1.75c0-1.09-0.8-1.82-2.55-1.82c-0.73,0-1.24,0.07-1.53,0.15V16.38z"/>
	</g>
	<g>
		<g>
			<polygon class="st0" points="693.41,4.84 585.22,4.84 693.41,57.59 			"/>
			<polygon class="st0" points="693.41,131.93 585.22,131.93 693.41,79.18 			"/>
			<polygon class="st0" points="661.78,68.58 566.34,22.73 566.34,114.31 			"/>
		</g>
	</g>
	<g>
		<g>
			<path class="st0" d="M9.22,20.13h18.51l30.1,46.78l30.1-46.78h18.51v98.93H89.07V48.11L57.83,94.75h-0.57L26.32,48.39v70.66H9.22
				V20.13z"/>
			<path class="st0" d="M128.78,16.74h18.37v16.25h-18.37V16.74z M129.49,44.44h17.1v74.62h-17.1V44.44z"/>
			<path class="st0" d="M168.92,44.44h17.1v11.45c4.81-6.92,11.73-13,23.32-13c16.82,0,26.57,11.31,26.57,28.55v47.63h-17.1v-42.4
				c0-11.59-5.79-18.23-15.97-18.23c-9.89,0-16.82,6.93-16.82,18.51v42.12h-17.1V44.44z"/>
			<path class="st0" d="M256.83,16.74h18.37v16.25h-18.37V16.74z M257.54,44.44h17.1v74.62h-17.1V44.44z"/>
			<path class="st0" d="M301.49,98.42V59.13h-9.47v-14.7h9.47V23.94h17.1v20.49h20.07v14.7h-20.07v36.6c0,6.64,3.39,9.33,9.19,9.33
				c3.82,0,7.21-0.85,10.6-2.54v13.99c-4.24,2.4-8.9,3.82-15.4,3.82C310.39,120.33,301.49,114.82,301.49,98.42z"/>
			<path class="st0" d="M351.1,97.58v-0.28c0-16.11,12.58-24.03,30.81-24.03c8.34,0,14.27,1.27,20.07,3.11v-1.84
				c0-10.6-6.5-16.25-18.51-16.25c-8.34,0-14.56,1.84-21.34,4.66l-4.52-13.43c8.2-3.67,16.25-6.08,28.12-6.08
				c11.16,0,19.5,2.97,24.73,8.34c5.51,5.37,8.06,13.28,8.06,23.04v44.24h-16.68v-9.33c-5.09,6.08-12.86,10.88-24.31,10.88
				C363.53,120.61,351.1,112.56,351.1,97.58z M402.26,92.2v-5.09c-4.38-1.7-10.18-2.97-16.96-2.97c-11.02,0-17.52,4.66-17.52,12.44
				v0.28c0,7.21,6.36,11.31,14.56,11.31C393.64,108.17,402.26,101.67,402.26,92.2z"/>
			<path class="st0" d="M453.28,107.47v11.59h-17.1V15.89h17.1v40.98c5.51-7.77,13.28-13.99,25.44-13.99
				c17.52,0,34.62,13.85,34.62,38.72v0.28c0,24.73-16.96,38.72-34.62,38.72C466.28,120.61,458.51,114.39,453.28,107.47z
				 M495.96,81.89V81.6c0-14.42-9.75-23.88-21.34-23.88s-21.76,9.61-21.76,23.88v0.28c0,14.27,10.18,23.88,21.76,23.88
				C486.35,105.77,495.96,96.58,495.96,81.89z"/>
		</g>
	</g>
</g>
</svg>
